<svg xmlns="http://www.w3.org/2000/svg" viewBox="0 0 128 128" width="128" height="128">
  <!-- Facet 1: top -->
  <polygon points="64,64 36,15.5 92,15.5" fill="#A78BFA" opacity="0.95"/>
  <!-- Facet 2: top-right -->
  <polygon points="64,64 92,15.5 120,64" fill="#8B5CF6" opacity="0.95"/>
  <!-- Facet 3: bottom-right -->
  <polygon points="64,64 120,64 92,112.5" fill="#7C3AED" opacity="0.95"/>
  <!-- Facet 4: bottom -->
  <polygon points="64,64 92,112.5 36,112.5" fill="#6D28D9" opacity="0.90"/>
  <!-- Facet 5: bottom-left -->
  <polygon points="64,64 36,112.5 8,64" fill="#7C3AED" opacity="0.92"/>
  <!-- Facet 6: top-left -->
  <polygon points="64,64 8,64 36,15.5" fill="#A78BFA" opacity="0.88"/>
  <!-- Facet edge lines -->
  <polygon points="120,64 92,112.5 36,112.5 8,64 36,15.5 92,15.5"
           fill="none" stroke="#4C1D95" stroke-width="1" opacity="0.2"/>
  <line x1="64" y1="64" x2="120" y2="64" stroke="#4C1D95" stroke-width="0.5" opacity="0.15"/>
  <line x1="64" y1="64" x2="92" y2="112.5" stroke="#4C1D95" stroke-width="0.5" opacity="0.15"/>
  <line x1="64" y1="64" x2="36" y2="112.5" stroke="#4C1D95" stroke-width="0.5" opacity="0.15"/>
  <line x1="64" y1="64" x2="8" y2="64" stroke="#4C1D95" stroke-width="0.5" opacity="0.15"/>
  <line x1="64" y1="64" x2="36" y2="15.5" stroke="#4C1D95" stroke-width="0.5" opacity="0.15"/>
  <line x1="64" y1="64" x2="92" y2="15.5" stroke="#4C1D95" stroke-width="0.5" opacity="0.15"/>
  <!-- Upward arrow -->
  <path d="M64,34 L84,58 L72,58 L72,94 L56,94 L56,58 L44,58 Z" fill="white" opacity="0.95"/>
</svg>
